<?xml version="1.0" encoding="UTF-8"?>
<svg xmlns="http://www.w3.org/2000/svg" viewBox="0 0 512 512" width="512" height="512" role="img" aria-label="涌潮虫群 · 孵化巢与幼虫">

<defs>
  <linearGradient id="foil" x1="0" y1="0" x2="1" y2="1">
    <stop offset="0" stop-color="#5FF3E0"/><stop offset=".35" stop-color="#4FD8FF"/>
    <stop offset=".65" stop-color="#B26BFF"/><stop offset="1" stop-color="#FFD86B"/></linearGradient>
  <linearGradient id="spec" x1="0" y1="0" x2="1" y2="0">
    <stop offset="0" stop-color="#FFFFFF" stop-opacity="0"/><stop offset=".45" stop-color="#FFFFFF" stop-opacity=".85"/>
    <stop offset="1" stop-color="#FFFFFF" stop-opacity="0"/></linearGradient>
  <linearGradient id="sheen" x1="0" y1="0" x2="1" y2="1">
    <stop offset="0" stop-color="#FFFFFF" stop-opacity=".28"/><stop offset=".45" stop-color="#FFFFFF" stop-opacity=".04"/>
    <stop offset="1" stop-color="#FFFFFF" stop-opacity=".16"/></linearGradient>
  <linearGradient id="iri" x1="0" y1="0" x2="1" y2="0">
    <stop offset="0" stop-color="#B6E8FF" stop-opacity=".55"/><stop offset=".33" stop-color="#FFD3EE" stop-opacity=".5"/>
    <stop offset=".66" stop-color="#DDF7A8" stop-opacity=".45"/><stop offset="1" stop-color="#DCC9FF" stop-opacity=".5"/></linearGradient>
  <radialGradient id="inner" cx="50%" cy="46%" r="62%">
    <stop offset="0" stop-color="#FFFFFF" stop-opacity=".38"/><stop offset=".55" stop-color="#FFFFFF" stop-opacity=".07"/>
    <stop offset="1" stop-color="#FFFFFF" stop-opacity="0"/></radialGradient>
  <pattern id="dust" width="6" height="6" patternUnits="userSpaceOnUse">
    <rect width="6" height="6" fill="none"/><circle cx="1.5" cy="2" r=".6" fill="#FFFFFF" opacity=".16"/>
    <circle cx="4.5" cy="4.5" r=".5" fill="#FFFFFF" opacity=".1"/></pattern>
  <pattern id="scan" width="4" height="4" patternUnits="userSpaceOnUse">
    <rect width="4" height="1" fill="#000000" opacity=".12"/></pattern>
  <filter id="bloom" x="-30%" y="-30%" width="160%" height="160%">
    <feGaussianBlur stdDeviation="6" result="b"/><feMerge><feMergeNode in="b"/><feMergeNode in="SourceGraphic"/></feMerge></filter>
  <filter id="refract" x="-10%" y="-10%" width="120%" height="120%">
    <feTurbulence type="fractalNoise" baseFrequency="0.012 0.03" numOctaves="2" seed="7" result="n"/>
    <feDisplacementMap in="SourceGraphic" in2="n" scale="6" xChannelSelector="R" yChannelSelector="G"/></filter>
</defs>
<defs>
  <linearGradient id="brass" x1="0" y1="0" x2="0" y2="1">
    <stop offset="0" stop-color="#e2c07a"/><stop offset=".45" stop-color="#b08d4f"/><stop offset="1" stop-color="#77592c"/>
  </linearGradient>
  <linearGradient id="steel" x1="0" y1="0" x2="0" y2="1">
    <stop offset="0" stop-color="#9fb3c4"/><stop offset=".5" stop-color="#54687a"/><stop offset="1" stop-color="#2c3843"/>
  </linearGradient>
  <linearGradient id="sandg" x1="0" y1="0" x2="0" y2="1">
    <stop offset="0" stop-color="#e6d3ab"/><stop offset="1" stop-color="#a98f66"/>
  </linearGradient>
  <linearGradient id="paper" x1="0" y1="0" x2="1" y2="1">
    <stop offset="0" stop-color="#f3ead6"/><stop offset="1" stop-color="#ddd0b4"/>
  </linearGradient>
  <radialGradient id="crtg" cx="50%" cy="50%" r="60%">
    <stop offset="0" stop-color="#9dffb8" stop-opacity=".95"/><stop offset="1" stop-color="#7ce38b" stop-opacity="0"/>
  </radialGradient>
  <linearGradient id="moss" x1="0" y1="0" x2="0" y2="1">
    <stop offset="0" stop-color="#7fa05a"/><stop offset="1" stop-color="#3d5a34"/>
  </linearGradient>
  <linearGradient id="prismg" x1="0" y1="0" x2="0" y2="1">
    <stop offset="0" stop-color="#ffffff"/><stop offset=".55" stop-color="#dfeaf6"/><stop offset="1" stop-color="#9fb4cc"/>
  </linearGradient>
  <filter id="soft"><feGaussianBlur stdDeviation="5" result="b"/><feMerge><feMergeNode in="b"/><feMergeNode in="SourceGraphic"/></feMerge></filter>
  <pattern id="scan" width="4" height="4" patternUnits="userSpaceOnUse">
    <rect width="4" height="1" y="0" fill="#000000" opacity=".10"/>
  </pattern>
  <pattern id="hatch" width="8" height="8" patternUnits="userSpaceOnUse" patternTransform="rotate(45)">
    <line x1="0" y1="0" x2="0" y2="8" stroke="#8a7a58" stroke-width="2" opacity=".55"/>
  </pattern>
</defs>
<rect width="512" height="512" fill="#1b222b"/>

<g>
  <rect width="512" height="512" fill="#20281f"/>
  <ellipse cx="256" cy="400" rx="210" ry="70" fill="#2b3327"/>
  <path d="M150 380 C120 250 200 130 256 130 C312 130 392 250 362 380 Z" fill="url(#moss)" opacity=".92"/>
  <path d="M170 372 C150 258 214 158 256 158 C298 158 362 258 342 372 Z" fill="#cfe0b8" opacity=".18"/>
  <g fill="#e9f2d8" opacity=".55">
    <ellipse cx="212" cy="248" rx="16" ry="9"/><ellipse cx="286" cy="222" rx="12" ry="7"/><ellipse cx="300" cy="300" rx="14" ry="8"/></g>
  <g fill="#3f6b34" stroke="#8fbf6a" stroke-width="2">
    <ellipse cx="222" cy="300" rx="26" ry="17"/><ellipse cx="272" cy="318" rx="22" ry="14"/><ellipse cx="248" cy="352" rx="24" ry="15"/></g>
  <g fill="#0f1a0e"><circle cx="212" cy="297" r="3"/><circle cx="262" cy="316" r="2.6"/><circle cx="238" cy="350" r="2.6"/></g>
  <g stroke="#8fbf6a" stroke-width="3" fill="none" opacity=".85">
    <path d="M256 130 C250 96 268 84 258 58"/><path d="M256 130 C276 104 258 92 272 70"/></g>
  <g fill="#d6ff6b" opacity=".9"><circle cx="258" cy="54" r="5"/><circle cx="274" cy="66" r="4"/><circle cx="244" cy="88" r="3.5"/><circle cx="286" cy="96" r="3"/><circle cx="230" cy="112" r="3"/></g>
  <g fill="#6b9b2e" opacity=".55"><ellipse cx="180" cy="412" rx="42" ry="12"/><ellipse cx="336" cy="418" rx="36" ry="10"/></g>
  <g stroke="#cfe0b8" stroke-width="2" opacity=".5"><path d="M170 372 q86 26 172 0" fill="none"/></g>
</g>
<text x="16" y="496" font-family="PingFang SC, Noto Sans SC, sans-serif" font-size="15" fill="#e8eefb" opacity=".92">涌潮虫群 · 孵化巢与幼虫</text>
<g><rect x="60" y="60" width="392" height="362" rx="12" fill="url(#dust)"/><rect x="60" y="60" width="392" height="362" rx="12" fill="url(#scan)" opacity=".45"/><rect x="60" y="60" width="392" height="362" rx="12" fill="url(#inner)"/><g filter="url(#bloom)" opacity=".5"><circle cx="154" cy="161" r="26" fill="#7CE38B" opacity=".35"/></g><rect x="64" y="64" width="20" height="354" rx="10" fill="url(#spec)" opacity=".4"/><rect x="60" y="60" width="392" height="362" rx="12" fill="none" stroke="#000000" stroke-width="1" opacity=".25"/></g>
<text x="16" y="478" font-family="PingFang SC, Noto Sans SC, sans-serif" font-size="12" fill="#94a3b8">美术设定001 · 复古未来 · 样例 SVG（非最终稿）</text>
</svg>
