<?xml version="1.0" encoding="UTF-8"?>
<svg xmlns="http://www.w3.org/2000/svg" viewBox="0 0 460 620" width="460" height="620" role="img" aria-label="精英（Elite）">
<defs>
  <linearGradient id="spec" x1="0" y1="0" x2="1" y2="0">
    <stop offset="0" stop-color="#FFFFFF" stop-opacity="0"/><stop offset=".45" stop-color="#FFFFFF" stop-opacity=".8"/>
    <stop offset="1" stop-color="#FFFFFF" stop-opacity="0"/></linearGradient>
  <linearGradient id="sheen" x1="0" y1="0" x2="1" y2="1">
    <stop offset="0" stop-color="#FFFFFF" stop-opacity=".22"/><stop offset=".5" stop-color="#FFFFFF" stop-opacity=".03"/>
    <stop offset="1" stop-color="#FFFFFF" stop-opacity=".14"/></linearGradient>
  <radialGradient id="inner" cx="50%" cy="45%" r="60%">
    <stop offset="0" stop-color="#FFFFFF" stop-opacity=".35"/><stop offset="1" stop-color="#FFFFFF" stop-opacity="0"/></radialGradient>
  <radialGradient id="glow" cx="50%" cy="50%" r="60%">
    <stop offset="0" stop-color="#FFFFFF" stop-opacity=".8"/><stop offset="1" stop-color="#FFFFFF" stop-opacity="0"/></radialGradient>
  <filter id="bloom" x="-30%" y="-30%" width="160%" height="160%">
    <feGaussianBlur stdDeviation="6" result="b"/><feMerge><feMergeNode in="b"/><feMergeNode in="SourceGraphic"/></feMerge></filter>
  <marker id="mArrow" viewBox="0 0 10 10" refX="8" refY="5" markerWidth="7" markerHeight="7" orient="auto-start-reverse">
    <path d="M0 0 L10 5 L0 10 z" fill="#E4533C"/></marker>
  <g id="spark"><path d="M0 -9 L2.2 -2.2 L9 0 L2.2 2.2 L0 9 L-2.2 2.2 L-9 0 L-2.2 -2.2 Z" fill="#FFFFFF" opacity=".9"/></g>
</defs>
<rect width="460" height="620" fill="#141a20"/>
<rect x="20" y="20" width="420" height="560" rx="20" fill="#1a222b" stroke="#9AA6B2" stroke-width="2.4" opacity=".95"/>
<rect x="28" y="28" width="404" height="544" rx="16" fill="#0f1a26" opacity=".5"/>
<ellipse cx="230" cy="416" rx="70" ry="14" fill="#000" opacity=".4"/><path d="M176 300 L284 300 L300 400 L160 400 Z" fill="#4A5560" stroke="#9AA6B2" stroke-width="2.4"/><path d="M168 300 L230 236 L292 300 Z" fill="#6B7280" stroke="#9AA6B2" stroke-width="2"/><g fill="#6B7280" stroke="#9AA6B2" stroke-width="2"><path d="M150 306 L186 292 L192 322 Z"/><path d="M310 306 L274 292 L268 322 Z"/></g><circle cx="230" cy="330" r="20" fill="none" stroke="#D8452B" stroke-width="3"/><circle cx="230" cy="330" r="8" fill="#FFB020"/><circle cx="230" cy="272" r="46" fill="none" stroke="#FFB020" stroke-width="2" stroke-dasharray="8 8" opacity=".8"/>
<text x="30" y="66" font-family="PingFang SC, Noto Sans SC, Microsoft YaHei, sans-serif" font-size="22" font-weight="700" fill="#F7FBFF">精英（Elite）</text>
<text x="30" y="90" font-family="PingFang SC, Noto Sans SC, Microsoft YaHei, sans-serif" font-size="12" fill="#9FB3C4">敌方原型　｜　相对体高 1.8×　｜　数值/04</text>
<rect x="336" y="44" width="96" height="30" rx="15" fill="#D8452B" opacity=".9"/>
<text x="384" y="64" text-anchor="middle" font-family="PingFang SC, Noto Sans SC, Microsoft YaHei, sans-serif" font-size="12" fill="#1B2733">威胁值 8</text>
<g><rect x="30" y="430" width="55" height="62" rx="9" fill="#101a24" stroke="#7FC7EA" stroke-width="1.1" opacity=".92"/><text x="57" y="462" text-anchor="middle" font-family="PingFang SC, Noto Sans SC, Microsoft YaHei, sans-serif" font-size="17" font-weight="700" fill="#F2F7FA">420</text><text x="57" y="482" text-anchor="middle" font-family="PingFang SC, Noto Sans SC, Microsoft YaHei, sans-serif" font-size="11" fill="#9FB3C4">生命</text></g><g><rect x="93" y="430" width="55" height="62" rx="9" fill="#101a24" stroke="#7FC7EA" stroke-width="1.1" opacity=".92"/><text x="120" y="462" text-anchor="middle" font-family="PingFang SC, Noto Sans SC, Microsoft YaHei, sans-serif" font-size="17" font-weight="700" fill="#F2F7FA">20</text><text x="120" y="482" text-anchor="middle" font-family="PingFang SC, Noto Sans SC, Microsoft YaHei, sans-serif" font-size="11" fill="#9FB3C4">攻击</text></g><g><rect x="155" y="430" width="55" height="62" rx="9" fill="#101a24" stroke="#7FC7EA" stroke-width="1.1" opacity=".92"/><text x="183" y="462" text-anchor="middle" font-family="PingFang SC, Noto Sans SC, Microsoft YaHei, sans-serif" font-size="17" font-weight="700" fill="#F2F7FA">0.9/s</text><text x="183" y="482" text-anchor="middle" font-family="PingFang SC, Noto Sans SC, Microsoft YaHei, sans-serif" font-size="11" fill="#9FB3C4">攻速</text></g><g><rect x="218" y="430" width="55" height="62" rx="9" fill="#101a24" stroke="#7FC7EA" stroke-width="1.1" opacity=".92"/><text x="245" y="462" text-anchor="middle" font-family="PingFang SC, Noto Sans SC, Microsoft YaHei, sans-serif" font-size="17" font-weight="700" fill="#F2F7FA">1.0</text><text x="245" y="482" text-anchor="middle" font-family="PingFang SC, Noto Sans SC, Microsoft YaHei, sans-serif" font-size="11" fill="#9FB3C4">移速</text></g><g><rect x="281" y="430" width="55" height="62" rx="9" fill="#101a24" stroke="#7FC7EA" stroke-width="1.1" opacity=".92"/><text x="308" y="462" text-anchor="middle" font-family="PingFang SC, Noto Sans SC, Microsoft YaHei, sans-serif" font-size="17" font-weight="700" fill="#F2F7FA">8</text><text x="308" y="482" text-anchor="middle" font-family="PingFang SC, Noto Sans SC, Microsoft YaHei, sans-serif" font-size="11" fill="#9FB3C4">护甲</text></g><g><rect x="343" y="430" width="55" height="62" rx="9" fill="#101a24" stroke="#7FC7EA" stroke-width="1.1" opacity=".92"/><text x="371" y="462" text-anchor="middle" font-family="PingFang SC, Noto Sans SC, Microsoft YaHei, sans-serif" font-size="17" font-weight="700" fill="#F2F7FA">8</text><text x="371" y="482" text-anchor="middle" font-family="PingFang SC, Noto Sans SC, Microsoft YaHei, sans-serif" font-size="11" fill="#9FB3C4">威胁值</text></g>
<text x="30" y="522" font-family="PingFang SC, Noto Sans SC, Microsoft YaHei, sans-serif" font-size="12.5" fill="#DCE6F2">关卡节点：免疫减速 50%，逼玩家改节奏</text>
<text x="30" y="544" font-family="PingFang SC, Noto Sans SC, Microsoft YaHei, sans-serif" font-size="12.5" fill="#9FB3C4">威胁值 8；护甲 8；免疫减速 50%，减速流在这里第一次失效</text>
<text x="30" y="566" font-family="PingFang SC, Noto Sans SC, Microsoft YaHei, sans-serif" font-size="11.5" fill="#7f93a8">美术设定002 · 千禧透明 · 单位设定（样例）</text>
<path d="M20 120 V580" stroke="#9AA6B2" stroke-width="3" opacity=".7"/>
<path d="M440 140 V560" stroke="#6B7280" stroke-width="2.4" opacity=".6"/>
<rect x="30" y="130" width="400" height="280" rx="14" fill="url(#inner)"/>
</svg>