<?xml version="1.0" encoding="UTF-8"?>
<svg xmlns="http://www.w3.org/2000/svg" viewBox="0 0 460 620" width="460" height="620" role="img" aria-label="空中（Air）">
<defs>
  <linearGradient id="spec" x1="0" y1="0" x2="1" y2="0">
    <stop offset="0" stop-color="#FFFFFF" stop-opacity="0"/><stop offset=".45" stop-color="#FFFFFF" stop-opacity=".8"/>
    <stop offset="1" stop-color="#FFFFFF" stop-opacity="0"/></linearGradient>
  <linearGradient id="sheen" x1="0" y1="0" x2="1" y2="1">
    <stop offset="0" stop-color="#FFFFFF" stop-opacity=".22"/><stop offset=".5" stop-color="#FFFFFF" stop-opacity=".03"/>
    <stop offset="1" stop-color="#FFFFFF" stop-opacity=".14"/></linearGradient>
  <radialGradient id="inner" cx="50%" cy="45%" r="60%">
    <stop offset="0" stop-color="#FFFFFF" stop-opacity=".35"/><stop offset="1" stop-color="#FFFFFF" stop-opacity="0"/></radialGradient>
  <radialGradient id="glow" cx="50%" cy="50%" r="60%">
    <stop offset="0" stop-color="#FFFFFF" stop-opacity=".8"/><stop offset="1" stop-color="#FFFFFF" stop-opacity="0"/></radialGradient>
  <filter id="bloom" x="-30%" y="-30%" width="160%" height="160%">
    <feGaussianBlur stdDeviation="6" result="b"/><feMerge><feMergeNode in="b"/><feMergeNode in="SourceGraphic"/></feMerge></filter>
  <marker id="mArrow" viewBox="0 0 10 10" refX="8" refY="5" markerWidth="7" markerHeight="7" orient="auto-start-reverse">
    <path d="M0 0 L10 5 L0 10 z" fill="#E4533C"/></marker>
  <g id="spark"><path d="M0 -9 L2.2 -2.2 L9 0 L2.2 2.2 L0 9 L-2.2 2.2 L-9 0 L-2.2 -2.2 Z" fill="#FFFFFF" opacity=".9"/></g>
</defs>
<rect width="460" height="620" fill="#141a20"/>
<rect x="20" y="20" width="420" height="560" rx="20" fill="#1a222b" stroke="#9AA6B2" stroke-width="2.4" opacity=".95"/>
<rect x="28" y="28" width="404" height="544" rx="16" fill="#0f1a26" opacity=".5"/>
<ellipse cx="230" cy="420" rx="46" ry="8" fill="#000" opacity=".22"/><g stroke="#9AA6B2" stroke-width="2" fill="#4A5560" opacity=".95"><ellipse cx="230" cy="266" rx="34" ry="20"/><path d="M196 262 L140 240 L140 272 Z"/><path d="M264 262 L320 240 L320 272 Z"/></g><circle cx="230" cy="266" r="9" fill="#FFB020"/><path d="M230 300 V344" stroke="#D8452B" stroke-width="2" stroke-dasharray="5 5" opacity=".8"/><ellipse cx="230" cy="348" rx="26" ry="7" fill="none" stroke="#D8452B" stroke-width="1.6" opacity=".7"/>
<text x="30" y="66" font-family="PingFang SC, Noto Sans SC, Microsoft YaHei, sans-serif" font-size="22" font-weight="700" fill="#F7FBFF">空中（Air）</text>
<text x="30" y="90" font-family="PingFang SC, Noto Sans SC, Microsoft YaHei, sans-serif" font-size="12" fill="#9FB3C4">敌方原型　｜　相对体高 0.8×（悬停 1.2×）　｜　数值/04</text>
<rect x="336" y="44" width="96" height="30" rx="15" fill="#D8452B" opacity=".9"/>
<text x="384" y="64" text-anchor="middle" font-family="PingFang SC, Noto Sans SC, Microsoft YaHei, sans-serif" font-size="12" fill="#1B2733">威胁值 4</text>
<g><rect x="30" y="430" width="55" height="62" rx="9" fill="#101a24" stroke="#7FC7EA" stroke-width="1.1" opacity=".92"/><text x="57" y="462" text-anchor="middle" font-family="PingFang SC, Noto Sans SC, Microsoft YaHei, sans-serif" font-size="17" font-weight="700" fill="#F2F7FA">70</text><text x="57" y="482" text-anchor="middle" font-family="PingFang SC, Noto Sans SC, Microsoft YaHei, sans-serif" font-size="11" fill="#9FB3C4">生命</text></g><g><rect x="93" y="430" width="55" height="62" rx="9" fill="#101a24" stroke="#7FC7EA" stroke-width="1.1" opacity=".92"/><text x="120" y="462" text-anchor="middle" font-family="PingFang SC, Noto Sans SC, Microsoft YaHei, sans-serif" font-size="17" font-weight="700" fill="#F2F7FA">12</text><text x="120" y="482" text-anchor="middle" font-family="PingFang SC, Noto Sans SC, Microsoft YaHei, sans-serif" font-size="11" fill="#9FB3C4">攻击</text></g><g><rect x="155" y="430" width="55" height="62" rx="9" fill="#101a24" stroke="#7FC7EA" stroke-width="1.1" opacity=".92"/><text x="183" y="462" text-anchor="middle" font-family="PingFang SC, Noto Sans SC, Microsoft YaHei, sans-serif" font-size="17" font-weight="700" fill="#F2F7FA">1.0/s</text><text x="183" y="482" text-anchor="middle" font-family="PingFang SC, Noto Sans SC, Microsoft YaHei, sans-serif" font-size="11" fill="#9FB3C4">攻速</text></g><g><rect x="218" y="430" width="55" height="62" rx="9" fill="#101a24" stroke="#7FC7EA" stroke-width="1.1" opacity=".92"/><text x="245" y="462" text-anchor="middle" font-family="PingFang SC, Noto Sans SC, Microsoft YaHei, sans-serif" font-size="17" font-weight="700" fill="#F2F7FA">1.2</text><text x="245" y="482" text-anchor="middle" font-family="PingFang SC, Noto Sans SC, Microsoft YaHei, sans-serif" font-size="11" fill="#9FB3C4">移速</text></g><g><rect x="281" y="430" width="55" height="62" rx="9" fill="#101a24" stroke="#7FC7EA" stroke-width="1.1" opacity=".92"/><text x="308" y="462" text-anchor="middle" font-family="PingFang SC, Noto Sans SC, Microsoft YaHei, sans-serif" font-size="17" font-weight="700" fill="#F2F7FA">0</text><text x="308" y="482" text-anchor="middle" font-family="PingFang SC, Noto Sans SC, Microsoft YaHei, sans-serif" font-size="11" fill="#9FB3C4">护甲</text></g><g><rect x="343" y="430" width="55" height="62" rx="9" fill="#101a24" stroke="#7FC7EA" stroke-width="1.1" opacity=".92"/><text x="371" y="462" text-anchor="middle" font-family="PingFang SC, Noto Sans SC, Microsoft YaHei, sans-serif" font-size="17" font-weight="700" fill="#F2F7FA">4</text><text x="371" y="482" text-anchor="middle" font-family="PingFang SC, Noto Sans SC, Microsoft YaHei, sans-serif" font-size="11" fill="#9FB3C4">威胁值</text></g>
<text x="30" y="522" font-family="PingFang SC, Noto Sans SC, Microsoft YaHei, sans-serif" font-size="12.5" fill="#DCE6F2">立体单位：检验对空覆盖是否够两张塔卡</text>
<text x="30" y="544" font-family="PingFang SC, Noto Sans SC, Microsoft YaHei, sans-serif" font-size="12.5" fill="#9FB3C4">威胁值 4；不吃地面拦截；三族对空覆盖极差的主要来源</text>
<text x="30" y="566" font-family="PingFang SC, Noto Sans SC, Microsoft YaHei, sans-serif" font-size="11.5" fill="#7f93a8">美术设定002 · 千禧透明 · 单位设定（样例）</text>
<path d="M20 120 V580" stroke="#9AA6B2" stroke-width="3" opacity=".7"/>
<path d="M440 140 V560" stroke="#6B7280" stroke-width="2.4" opacity=".6"/>
<rect x="30" y="130" width="400" height="280" rx="14" fill="url(#inner)"/>
</svg>